<?xml version="1.0" standalone="no"?><!DOCTYPE svg PUBLIC "-//W3C//DTD SVG 1.1//EN" "http://www.w3.org/Graphics/SVG/1.1/DTD/svg11.dtd"><svg t="1647088958945" class="icon" viewBox="0 0 1024 1024" version="1.1" xmlns="http://www.w3.org/2000/svg" p-id="3099" xmlns:xlink="http://www.w3.org/1999/xlink" width="200" height="200"><defs><style type="text/css"></style></defs><path d="M575.311828 512L922.150538 170.666667c22.021505-22.021505 22.021505-55.053763 0-77.075269-22.021505-22.021505-57.806452-22.021505-79.827957 0L498.236559 434.924731 151.397849 93.591398c-22.021505-22.021505-57.806452-22.021505-79.827957 0-22.021505 22.021505-22.021505 55.053763 0 77.075269l344.086022 341.333333L74.322581 853.333333c-22.021505 22.021505-22.021505 55.053763 0 77.075269 22.021505 22.021505 57.806452 22.021505 79.827957 0l344.086021-341.333333 344.086022 341.333333c22.021505 22.021505 57.806452 22.021505 79.827957 0 22.021505-22.021505 22.021505-55.053763 0-77.075269L575.311828 512z" fill="#e6e6e6" p-id="3100"></path></svg>