<?xml version="1.0" standalone="no"?><!DOCTYPE svg PUBLIC "-//W3C//DTD SVG 1.1//EN" "http://www.w3.org/Graphics/SVG/1.1/DTD/svg11.dtd"><svg t="1645105243554" class="icon" viewBox="0 0 1024 1024" version="1.1" xmlns="http://www.w3.org/2000/svg" p-id="3040" xmlns:xlink="http://www.w3.org/1999/xlink" width="200" height="200"><defs><style type="text/css"></style></defs><path d="M512 0C229.235 0 0 229.23 0 512s229.235 512 512 512c282.77 0 512-229.23 512-512S794.77 0 512 0z m0 972.8C257.505 972.8 51.2 766.495 51.2 512S257.505 51.2 512 51.2 972.8 257.505 972.8 512 766.495 972.8 512 972.8z m24.35-316.897c0 10.485-11.19 18.982-24.997 18.982-13.806 0-25-8.497-25-18.982V200.349c0-10.483 11.194-18.982 25-18.982 13.807 0 24.997 8.499 24.997 18.982v455.554z m0 106.483c0 10.484-11.19 18.981-25 18.981-13.809 0-25-8.497-25-18.981 0-10.483 11.191-18.981 25-18.981 13.809-0.001 25 8.497 25 18.981z" fill="#231815" p-id="3041"></path></svg>